HIERARCHY
ROOT Hips
{
	OFFSET 0.000000 0.000000 0.000000
	CHANNELS 6 Xposition Yposition Zposition Zrotation Yrotation Xrotation 
	JOINT LHipJoint
	{
		OFFSET 0.000000 0.000000 0.000000
		CHANNELS 3 Zrotation Yrotation Xrotation
		JOINT LeftUpLeg
		{
			OFFSET 1.363060 -1.794630 0.839290
			CHANNELS 3 Zrotation Yrotation Xrotation
			JOINT LeftLeg
			{
				OFFSET 2.448110 -6.726130 0.000000
				CHANNELS 3 Zrotation Yrotation Xrotation
				JOINT LeftFoot
				{
					OFFSET 2.562200 -7.039590 0.000000
					CHANNELS 3 Zrotation Yrotation Xrotation
					JOINT LeftToeBase
					{
						OFFSET 0.157640 -0.433110 2.322550
						CHANNELS 3 Zrotation Yrotation Xrotation
						End Site
						{
							OFFSET 0.000000 0.000000 0.000000
						}
					}
				}
			}
		}
	}
	JOINT RHipJoint
	{
		OFFSET 0.000000 0.000000 0.000000
		CHANNELS 3 Zrotation Yrotation Xrotation
		JOINT RightUpLeg
		{
			OFFSET -1.305520 -1.794630 0.839290
			CHANNELS 3 Zrotation Yrotation Xrotation
			JOINT RightLeg
			{
				OFFSET -2.542530 -6.985550 0.000000
				CHANNELS 3 Zrotation Yrotation Xrotation
				JOINT RightFoot
				{
					OFFSET -2.568260 -7.056230 0.000000
					CHANNELS 3 Zrotation Yrotation Xrotation
					JOINT RightToeBase
					{
						OFFSET -0.164730 -0.452590 2.363150
						CHANNELS 3 Zrotation Yrotation Xrotation
						End Site
						{
							OFFSET 0.000000 0.000000 0.000000
						}
					}
				}
			}
		}
	}
	JOINT LowerBack
	{
		OFFSET 0.000000 0.000000 0.000000
		CHANNELS 3 Zrotation Yrotation Xrotation
		JOINT Spine
		{
			OFFSET 0.028270 2.035590 -0.193380
			CHANNELS 3 Zrotation Yrotation Xrotation
			JOINT Spine1
			{
				OFFSET 0.056720 2.048850 -0.042750
				CHANNELS 3 Zrotation Yrotation Xrotation
				JOINT Neck
				{
					OFFSET 0.000000 0.000000 0.000000
					CHANNELS 3 Zrotation Yrotation Xrotation
					JOINT Neck1
					{
						OFFSET -0.054170 1.746240 0.172020
						CHANNELS 3 Zrotation Yrotation Xrotation
						JOINT Head
						{
							OFFSET 0.104070 1.761360 -0.123970
							CHANNELS 3 Zrotation Yrotation Xrotation
							End Site
							{
								OFFSET 0.000000 0.000000 0.000000
							}
						}
					}
				}
				JOINT LeftShoulder
				{
					OFFSET 0.000000 0.000000 0.000000
					CHANNELS 3 Zrotation Yrotation Xrotation
					JOINT LeftArm
					{
						OFFSET 3.362410 1.200890 -0.311210
						CHANNELS 3 Zrotation Yrotation Xrotation
						JOINT LeftForeArm
						{
							OFFSET 4.983000 -0.000000 -0.000000
							CHANNELS 3 Zrotation Yrotation Xrotation
							JOINT LeftHand
							{
								OFFSET 3.483560 -0.000000 -0.000000
								CHANNELS 3 Zrotation Yrotation Xrotation
								JOINT LeftFingerBase
								{
									OFFSET 0.000000 0.000000 0.000000
									CHANNELS 3 Zrotation Yrotation Xrotation
									JOINT LeftHandIndex1
									{
										OFFSET 0.715260 -0.000000 -0.000000
										CHANNELS 3 Zrotation Yrotation Xrotation
										End Site
										{
											OFFSET 0.000000 0.000000 0.000000
										}
									}
								}
								JOINT LThumb
								{
									OFFSET 0.000000 0.000000 0.000000
									CHANNELS 3 Zrotation Yrotation Xrotation
									End Site
									{
										OFFSET 0.000000 0.000000 0.000000
									}
								}
							}
						}
					}
				}
				JOINT RightShoulder
				{
					OFFSET 0.000000 0.000000 0.000000
					CHANNELS 3 Zrotation Yrotation Xrotation
					JOINT RightArm
					{
						OFFSET -3.136600 1.374050 -0.404650
						CHANNELS 3 Zrotation Yrotation Xrotation
						JOINT RightForeArm
						{
							OFFSET -5.241900 -0.000000 -0.000000
							CHANNELS 3 Zrotation Yrotation Xrotation
							JOINT RightHand
							{
								OFFSET -3.444170 -0.000000 -0.000000
								CHANNELS 3 Zrotation Yrotation Xrotation
								JOINT RightFingerBase
								{
									OFFSET 0.000000 0.000000 0.000000
									CHANNELS 3 Zrotation Yrotation Xrotation
									JOINT RightHandIndex1
									{
										OFFSET -0.622530 -0.000000 -0.000000
										CHANNELS 3 Zrotation Yrotation Xrotation
										End Site
										{
											OFFSET 0.000000 0.000000 0.000000
										}
									}
								}
								JOINT RThumb
								{
									OFFSET 0.000000 0.000000 0.000000
									CHANNELS 3 Zrotation Yrotation Xrotation
									End Site
									{
										OFFSET 0.000000 0.000000 0.000000
									}
								}
							}
						}
					}
				}
			}
		}
	}
}
MOTION
Frames: 6
Frame Time: 0.008333
8.610473 17.848099 20.666992 -174.189425 -6.485319 173.545864 -2.879312 -1.733956 0.193631 -14.365865 1.166847 17.510272 -0.280267 2.507542 4.301226 0.261033 -3.184607 -7.381756 0.003900 -0.404800 -1.112300 2.443613 1.841521 -2.149948 11.462722 -0.699702 -82.636287 -26.155611 -17.986364 109.182854 -0.514653 5.156428 -2.795463 -0.007700 0.564900 -1.552300 -2.242545 1.216851 16.642865 2.002751 0.927513 0.466824 5.429022 -0.047035 0.351341 -6.794260 3.202386 -8.931784 3.744403 -1.383314 30.335590 2.085600 -3.460400 17.224000 -0.255311 -1.008994 0.755678 -86.016948 4.589017 21.681210 17.838571 -29.249356 -4.485162 0.434507 0.976491 -4.146653 22.894723 21.363235 8.181000 -7.125000 0.000000 0.000000 -6.239300 51.807100 -1.049200 1.852380 0.888641 -0.121002 83.855440 -5.021608 8.087072 -14.510255 22.725245 -3.084800 0.107242 -0.104235 -5.672922 -18.504649 11.559100 -3.895500 7.125000 0.000000 0.000000 5.985200 -17.722800 3.900600 
8.619261 17.838512 20.614463 -174.201194 -6.229137 173.810636 -2.903182 -1.739311 0.210994 -14.337381 1.152376 16.907977 -0.276592 2.856323 5.262876 0.300603 -3.329558 -8.320209 0.005900 -0.496100 -1.363200 2.449779 1.842306 -2.145723 11.494060 -0.219237 -82.451557 -26.116478 -18.003920 109.062153 -0.487325 4.880140 -2.349718 -0.001500 0.249100 -0.684500 -2.259996 1.240673 16.623672 2.018830 0.980396 0.366235 5.496919 -0.004934 0.157803 -6.982064 3.247993 -8.938486 3.875817 -1.341225 30.404694 2.197600 -3.485000 17.294000 -0.248561 -1.015257 0.743533 -86.157745 4.593193 21.417023 17.700034 -29.082619 -4.431457 0.451857 0.987731 -3.433249 23.246517 21.966663 8.545100 -7.125000 0.000000 0.000000 -6.072300 52.485500 -1.122100 1.843173 0.901871 -0.126973 83.710761 -5.029090 8.503508 -14.747485 23.047976 -3.179794 0.105763 -0.101921 -5.867015 -18.540573 11.571425 -3.906600 7.125000 0.000000 0.000000 5.961300 -17.709600 3.886600 
8.626751 17.840709 20.564431 -174.052476 -5.854869 174.088937 -2.924926 -1.750754 0.222027 -14.129037 1.191463 16.131767 -0.260769 3.279516 6.434575 0.341212 -3.458104 -9.147162 0.017000 -0.842900 -2.316700 2.452629 1.842364 -2.144330 11.697675 0.342912 -82.225617 -26.061964 -18.027364 108.897174 -0.476929 4.872727 -1.887042 -0.002900 0.348300 -0.956900 -2.073418 1.299909 16.523814 2.052379 1.096793 0.318932 5.483035 0.063288 0.110509 -7.090736 3.272179 -9.026778 3.892173 -1.274526 30.429040 2.235700 -3.479500 17.340300 -0.232131 -1.018144 0.735329 -86.210733 4.321817 21.689062 17.415429 -28.725164 -4.304840 0.450954 0.981766 -3.552835 23.067520 21.616894 8.340700 -7.125000 0.000000 0.000000 -6.147600 52.093500 -1.076900 1.839556 0.904195 -0.129627 83.548759 -5.004070 9.169392 -15.086111 23.506098 -3.317286 0.110000 -0.097867 -6.403802 -18.912669 11.512946 -3.970500 7.125000 0.000000 0.000000 5.697600 -17.743700 3.708600 
8.633042 17.836315 20.509805 -173.746275 -5.533840 174.193281 -2.939905 -1.762332 0.223284 -13.787501 1.204098 15.502266 -0.234380 3.715361 7.640984 0.369122 -3.394819 -9.683659 0.038500 -1.266400 -3.482100 2.446123 1.842179 -2.146539 12.092445 0.778373 -81.677804 -25.994131 -18.061470 108.685656 -0.494464 5.192748 -1.842600 -0.001400 0.241500 -0.663600 -1.745721 1.346984 16.483533 2.143004 1.198867 0.345831 5.520976 0.108016 0.176311 -7.208701 3.263309 -9.031412 3.832643 -1.176603 30.314727 2.240400 -3.446800 17.242200 -0.212059 -1.019045 0.735373 -86.356153 4.032132 22.260335 17.154853 -28.404484 -4.190287 0.448994 0.980486 -4.214487 23.076792 21.228147 8.195600 -7.125000 0.000000 0.000000 -6.031900 51.693400 -0.997300 1.849985 0.897968 -0.123592 83.255315 -4.829011 9.882988 -15.392100 23.920443 -3.444008 0.111877 -0.092383 -6.946219 -19.061888 11.455005 -3.983100 7.125000 0.000000 0.000000 5.591000 -17.797200 3.631900 
8.640732 17.818039 20.451084 -173.654602 -5.365741 174.304767 -2.955298 -1.770019 0.222908 -13.683118 1.138713 15.062760 -0.201461 4.065355 8.608595 0.393973 -3.579983 -10.088123 0.011000 -0.676800 -1.860000 2.441559 1.845693 -2.148216 12.238537 1.066668 -81.099526 -25.939672 -18.088952 108.516030 -0.517365 5.576665 -1.916092 -0.010600 -0.663300 1.822700 -1.690187 1.361594 16.479958 2.223749 1.223559 0.368145 5.684433 0.107455 0.232549 -7.326650 3.258660 -9.158496 3.747412 -1.079735 30.274544 2.225600 -3.422400 17.237400 -0.202088 -1.027844 0.735507 -86.744126 4.033978 21.982211 17.234535 -28.530452 -4.237937 0.480126 0.994332 -3.842024 24.091435 21.773624 8.804000 -7.125000 0.000000 0.000000 -5.194000 52.430900 -0.952100 1.865898 0.895152 -0.119242 82.941603 -4.529764 10.356422 -15.598082 24.196029 -3.530608 0.106945 -0.089684 -7.096918 -18.841528 11.555281 -3.965400 7.125000 0.000000 0.000000 5.750200 -17.713300 3.747000 
8.647323 17.795670 20.389167 -173.742034 -5.175771 174.506520 -2.971222 -1.781514 0.224195 -13.777537 1.102486 14.546857 -0.154022 4.450836 9.679709 0.437735 -4.071016 -10.730135 0.000900 0.197200 0.541800 2.449331 1.849010 -2.146641 12.111455 1.397650 -80.745086 -25.910579 -18.103280 108.429416 -0.533451 5.917297 -1.825958 -0.020300 -0.919100 2.526100 -1.680063 1.381055 16.429517 2.201441 1.249587 0.359895 5.618695 0.124525 0.263510 -7.229574 3.291377 -9.406622 3.618605 -1.011390 30.354211 2.138200 -3.390700 17.363400 -0.198879 -1.039933 0.733700 -86.888526 4.069880 21.803452 17.344775 -28.672308 -4.289331 0.494245 0.988831 -3.631601 24.487216 21.631158 8.907700 -7.125000 0.000000 0.000000 -4.762600 52.355300 -0.863900 1.866834 0.894049 -0.121171 82.899736 -4.295868 10.793919 -15.830407 24.498721 -3.628108 0.108825 -0.088588 -7.269316 -19.123433 11.537912 -4.023100 7.125000 0.000000 0.000000 5.551500 -17.709400 3.616800 
